<svg width="1200" height="630" viewBox="0 0 1200 630" fill="none" xmlns="http://www.w3.org/2000/svg">
  <rect width="1200" height="630" fill="#F5F1E8"/>
  <rect x="72" y="72" width="1056" height="486" rx="40" fill="#FFFDF8" stroke="#D7D0C2" stroke-width="2"/>
  <path d="M156 446C279 379.333 379.333 308.667 457 234C506.333 185.333 563.667 161 629 161C710.333 161 784.333 193.667 851 259C903.667 311 963 338.333 1029 341V446H156Z" fill="#2563EB" fill-opacity="0.12"/>
  <path d="M156 475C285.333 434.333 392 379.333 476 310C544.667 254.667 619.333 227 700 227C785.333 227 868 266.667 948 346C978 375.333 1005 393.667 1029 401V475H156Z" fill="#2563EB" fill-opacity="0.2"/>
  <circle cx="941" cy="175" r="56" fill="#0F172A"/>
  <path d="M297.968 220.92H339.408V410H297.968V220.92ZM412.349 220.92H453.789V410H412.349V220.92ZM297.968 220.92H453.789V256.92H297.968V220.92ZM297.968 297.88H440.349V333.52H297.968V297.88ZM492.062 410V220.92H533.502V374H624.942V410H492.062ZM659.126 410V220.92H786.446V256.92H700.566V299.32H779.246V334.96H700.566V374H789.326V410H659.126Z" fill="#0F172A"/>
  <text x="300" y="468" fill="#475569" font-family="Arial, sans-serif" font-size="30" letter-spacing="0.12em">EDITORIAL NEXT.JS SEO PORTFOLIO</text>
</svg>
